<mxfile host="app.diagrams.net" agent="Mozilla/5.0 (Windows NT 10.0; Win64; x64) AppleWebKit/537.36 (KHTML, like Gecko) Chrome/129.0.0.0 Safari/537.36" version="24.7.17">
  <diagram id="C5RBs43oDa-KdzZeNtuy" name="Page-1">
    <mxGraphModel dx="1493" dy="2962" grid="1" gridSize="10" guides="1" tooltips="1" connect="1" arrows="1" fold="1" page="1" pageScale="1" pageWidth="827" pageHeight="1169" math="0" shadow="0">
      <root>
        <mxCell id="WIyWlLk6GJQsqaUBKTNV-0" />
        <mxCell id="WIyWlLk6GJQsqaUBKTNV-1" parent="WIyWlLk6GJQsqaUBKTNV-0" />
        <mxCell id="rUnFUxkot40c6fo-Xuhl-10" value="" style="html=1;overflow=block;blockSpacing=1;whiteSpace=wrap;ellipse;container=1;pointerEvents=0;collapsible=0;recursiveResize=0;fontSize=13;spacing=0;strokeColor=#unset;fillOpacity=0;rounded=1;absoluteArcSize=1;arcSize=9;fillColor=#000000;strokeWidth=NaN;lucidId=Y.~frDhy4yKe;" vertex="1" parent="WIyWlLk6GJQsqaUBKTNV-1">
          <mxGeometry x="1080" y="-67" width="314" height="140" as="geometry" />
        </mxCell>
        <mxCell id="rUnFUxkot40c6fo-Xuhl-11" value="" style="html=1;overflow=block;blockSpacing=1;whiteSpace=wrap;ellipse;container=1;pointerEvents=0;collapsible=0;recursiveResize=0;fontSize=13;spacing=0;strokeColor=#unset;fillOpacity=0;rounded=1;absoluteArcSize=1;arcSize=9;fillColor=#000000;strokeWidth=NaN;lucidId=Q~~ft_3wy2R-;" vertex="1" parent="WIyWlLk6GJQsqaUBKTNV-1">
          <mxGeometry x="270" y="-23" width="284" height="103" as="geometry" />
        </mxCell>
        <mxCell id="rUnFUxkot40c6fo-Xuhl-12" value="" style="html=1;overflow=block;blockSpacing=1;whiteSpace=wrap;ellipse;container=1;pointerEvents=0;collapsible=0;recursiveResize=0;fontSize=13;spacing=0;strokeColor=#unset;fillOpacity=0;rounded=1;absoluteArcSize=1;arcSize=9;fillColor=#000000;strokeWidth=NaN;lucidId=Eaag7vFq_rkK;" vertex="1" parent="WIyWlLk6GJQsqaUBKTNV-1">
          <mxGeometry x="240" y="112" width="358" height="141" as="geometry" />
        </mxCell>
        <mxCell id="rUnFUxkot40c6fo-Xuhl-13" value="" style="html=1;overflow=block;blockSpacing=1;whiteSpace=wrap;ellipse;container=1;pointerEvents=0;collapsible=0;recursiveResize=0;fontSize=13;spacing=0;strokeColor=#unset;fillOpacity=0;rounded=1;absoluteArcSize=1;arcSize=9;fillColor=#000000;strokeWidth=NaN;lucidId=mcageydQGY9z;" vertex="1" parent="WIyWlLk6GJQsqaUBKTNV-1">
          <mxGeometry x="750" y="-68" width="343" height="142" as="geometry" />
        </mxCell>
        <mxCell id="rUnFUxkot40c6fo-Xuhl-14" value="" style="html=1;overflow=block;blockSpacing=1;whiteSpace=wrap;ellipse;container=1;pointerEvents=0;collapsible=0;recursiveResize=0;fontSize=13;spacing=0;strokeColor=#unset;fillOpacity=0;rounded=1;absoluteArcSize=1;arcSize=9;fillColor=#000000;strokeWidth=NaN;lucidId=ddagG1QzPClm;" vertex="1" parent="WIyWlLk6GJQsqaUBKTNV-1">
          <mxGeometry x="2115" y="154" width="296" height="133" as="geometry" />
        </mxCell>
        <mxCell id="rUnFUxkot40c6fo-Xuhl-15" value="" style="html=1;overflow=block;blockSpacing=1;whiteSpace=wrap;ellipse;container=1;pointerEvents=0;collapsible=0;recursiveResize=0;fontSize=13;spacing=0;strokeColor=#unset;fillOpacity=0;rounded=1;absoluteArcSize=1;arcSize=9;fillColor=#000000;strokeWidth=NaN;lucidId=NdagpB1rLRM-;" vertex="1" parent="WIyWlLk6GJQsqaUBKTNV-1">
          <mxGeometry x="2385" y="336" width="341" height="143" as="geometry" />
        </mxCell>
        <mxCell id="rUnFUxkot40c6fo-Xuhl-16" value="" style="html=1;overflow=block;blockSpacing=1;whiteSpace=wrap;ellipse;container=1;pointerEvents=0;collapsible=0;recursiveResize=0;fontSize=13;spacing=0;strokeColor=#unset;fillOpacity=0;rounded=1;absoluteArcSize=1;arcSize=9;fillColor=#000000;strokeWidth=NaN;lucidId=jeagK1TZLon7;" vertex="1" parent="WIyWlLk6GJQsqaUBKTNV-1">
          <mxGeometry x="3090" y="214" width="289" height="143" as="geometry" />
        </mxCell>
        <mxCell id="rUnFUxkot40c6fo-Xuhl-18" value="" style="html=1;overflow=block;blockSpacing=1;whiteSpace=wrap;ellipse;container=1;pointerEvents=0;collapsible=0;recursiveResize=0;fontSize=13;spacing=0;strokeColor=#unset;fillOpacity=0;rounded=1;absoluteArcSize=1;arcSize=9;fillColor=#000000;strokeWidth=NaN;lucidId=RfagXSF.b_IG;" vertex="1" parent="WIyWlLk6GJQsqaUBKTNV-1">
          <mxGeometry x="3585" y="-373" width="367" height="172" as="geometry" />
        </mxCell>
        <mxCell id="rUnFUxkot40c6fo-Xuhl-19" value="" style="html=1;overflow=block;blockSpacing=1;whiteSpace=wrap;ellipse;container=1;pointerEvents=0;collapsible=0;recursiveResize=0;fontSize=13;spacing=0;strokeColor=#unset;fillOpacity=0;rounded=1;absoluteArcSize=1;arcSize=9;fillColor=#000000;strokeWidth=NaN;lucidId=-nagajI_LvL3;" vertex="1" parent="WIyWlLk6GJQsqaUBKTNV-1">
          <mxGeometry x="3131" y="-443" width="270" height="122" as="geometry" />
        </mxCell>
        <mxCell id="rUnFUxkot40c6fo-Xuhl-20" value="" style="html=1;overflow=block;blockSpacing=1;whiteSpace=wrap;ellipse;container=1;pointerEvents=0;collapsible=0;recursiveResize=0;fontSize=13;spacing=0;strokeColor=#unset;fillOpacity=0;rounded=1;absoluteArcSize=1;arcSize=9;fillColor=#000000;strokeWidth=NaN;lucidId=WpagX4FR4gD3;" vertex="1" parent="WIyWlLk6GJQsqaUBKTNV-1">
          <mxGeometry x="3121" y="-608" width="263" height="102" as="geometry" />
        </mxCell>
        <mxCell id="rUnFUxkot40c6fo-Xuhl-21" value="" style="html=1;overflow=block;blockSpacing=1;whiteSpace=wrap;ellipse;container=1;pointerEvents=0;collapsible=0;recursiveResize=0;fontSize=13;spacing=0;strokeColor=#unset;fillOpacity=0;rounded=1;absoluteArcSize=1;arcSize=9;fillColor=#000000;strokeWidth=NaN;lucidId=PqagYd1Hs4T0;" vertex="1" parent="WIyWlLk6GJQsqaUBKTNV-1">
          <mxGeometry x="2116" y="-615" width="294" height="116" as="geometry" />
        </mxCell>
        <mxCell id="rUnFUxkot40c6fo-Xuhl-22" value="" style="html=1;overflow=block;blockSpacing=1;whiteSpace=wrap;ellipse;container=1;pointerEvents=0;collapsible=0;recursiveResize=0;fontSize=13;spacing=0;strokeColor=#unset;fillOpacity=0;rounded=1;absoluteArcSize=1;arcSize=9;fillColor=#000000;strokeWidth=NaN;lucidId=uragK32LG8al;" vertex="1" parent="WIyWlLk6GJQsqaUBKTNV-1">
          <mxGeometry x="720" y="-338" width="294" height="133" as="geometry" />
        </mxCell>
        <mxCell id="rUnFUxkot40c6fo-Xuhl-23" value="" style="html=1;overflow=block;blockSpacing=1;whiteSpace=wrap;ellipse;container=1;pointerEvents=0;collapsible=0;recursiveResize=0;fontSize=13;spacing=0;strokeColor=#unset;fillOpacity=0;rounded=1;absoluteArcSize=1;arcSize=9;fillColor=#000000;strokeWidth=NaN;lucidId=~MagYrt4~OjG;" vertex="1" parent="WIyWlLk6GJQsqaUBKTNV-1">
          <mxGeometry x="4144" y="-1095" width="240" height="109" as="geometry" />
        </mxCell>
        <mxCell id="rUnFUxkot40c6fo-Xuhl-24" value="" style="html=1;overflow=block;blockSpacing=1;whiteSpace=wrap;ellipse;container=1;pointerEvents=0;collapsible=0;recursiveResize=0;fontSize=13;spacing=0;strokeColor=#unset;fillOpacity=0;rounded=1;absoluteArcSize=1;arcSize=9;fillColor=#000000;strokeWidth=NaN;lucidId=FNagKLXwvpPt;" vertex="1" parent="WIyWlLk6GJQsqaUBKTNV-1">
          <mxGeometry x="4144" y="-891" width="271" height="91" as="geometry" />
        </mxCell>
        <mxCell id="rUnFUxkot40c6fo-Xuhl-25" value="" style="html=1;overflow=block;blockSpacing=1;whiteSpace=wrap;ellipse;container=1;pointerEvents=0;collapsible=0;recursiveResize=0;fontSize=13;spacing=0;strokeColor=#unset;fillOpacity=0;rounded=1;absoluteArcSize=1;arcSize=9;fillColor=#000000;strokeWidth=NaN;lucidId=ROag3yyd6gWR;" vertex="1" parent="WIyWlLk6GJQsqaUBKTNV-1">
          <mxGeometry x="3705" y="-625" width="240" height="122" as="geometry" />
        </mxCell>
        <mxCell id="rUnFUxkot40c6fo-Xuhl-26" value="" style="html=1;overflow=block;blockSpacing=1;whiteSpace=wrap;ellipse;container=1;pointerEvents=0;collapsible=0;recursiveResize=0;fontSize=13;spacing=0;strokeColor=#unset;fillOpacity=0;rounded=1;absoluteArcSize=1;arcSize=9;fillColor=#000000;strokeWidth=NaN;lucidId=_PagpBcSsMX9;" vertex="1" parent="WIyWlLk6GJQsqaUBKTNV-1">
          <mxGeometry x="3705" y="-1016" width="272" height="137" as="geometry" />
        </mxCell>
        <mxCell id="rUnFUxkot40c6fo-Xuhl-27" value="" style="html=1;overflow=block;blockSpacing=1;whiteSpace=wrap;ellipse;container=1;pointerEvents=0;collapsible=0;recursiveResize=0;fontSize=13;spacing=0;strokeColor=#unset;fillOpacity=0;rounded=1;absoluteArcSize=1;arcSize=9;fillColor=#000000;strokeWidth=NaN;lucidId=KSagWHLwqx-Q;" vertex="1" parent="WIyWlLk6GJQsqaUBKTNV-1">
          <mxGeometry x="4099" y="-630" width="296" height="132" as="geometry" />
        </mxCell>
        <mxCell id="rUnFUxkot40c6fo-Xuhl-29" value="" style="html=1;overflow=block;blockSpacing=1;whiteSpace=wrap;ellipse;container=1;pointerEvents=0;collapsible=0;recursiveResize=0;fontSize=13;spacing=0;strokeColor=#unset;fillOpacity=0;rounded=1;absoluteArcSize=1;arcSize=9;fillColor=#000000;strokeWidth=NaN;lucidId=S.agqyD3YTH9;" vertex="1" parent="WIyWlLk6GJQsqaUBKTNV-1">
          <mxGeometry x="4179" y="-159" width="432" height="250" as="geometry" />
        </mxCell>
        <mxCell id="rUnFUxkot40c6fo-Xuhl-30" value="" style="html=1;overflow=block;blockSpacing=1;whiteSpace=wrap;ellipse;container=1;pointerEvents=0;collapsible=0;recursiveResize=0;fontSize=13;spacing=0;strokeColor=#unset;fillOpacity=0;rounded=1;absoluteArcSize=1;arcSize=9;fillColor=#000000;strokeWidth=NaN;lucidId=fabg-TmvuDj1;" vertex="1" parent="WIyWlLk6GJQsqaUBKTNV-1">
          <mxGeometry x="3131" y="-232" width="300" height="152" as="geometry" />
        </mxCell>
        <mxCell id="rUnFUxkot40c6fo-Xuhl-113" style="edgeStyle=orthogonalEdgeStyle;rounded=0;orthogonalLoop=1;jettySize=auto;html=1;exitX=1;exitY=0.5;exitDx=0;exitDy=0;entryX=0;entryY=0.5;entryDx=0;entryDy=0;" edge="1" parent="WIyWlLk6GJQsqaUBKTNV-1" source="rUnFUxkot40c6fo-Xuhl-32" target="rUnFUxkot40c6fo-Xuhl-43">
          <mxGeometry relative="1" as="geometry" />
        </mxCell>
        <mxCell id="rUnFUxkot40c6fo-Xuhl-114" style="edgeStyle=orthogonalEdgeStyle;rounded=0;orthogonalLoop=1;jettySize=auto;html=1;exitX=1;exitY=0.5;exitDx=0;exitDy=0;entryX=0;entryY=0.5;entryDx=0;entryDy=0;" edge="1" parent="WIyWlLk6GJQsqaUBKTNV-1" source="rUnFUxkot40c6fo-Xuhl-32" target="rUnFUxkot40c6fo-Xuhl-44">
          <mxGeometry relative="1" as="geometry">
            <Array as="points">
              <mxPoint x="3020" y="-261" />
              <mxPoint x="3020" y="-526" />
            </Array>
          </mxGeometry>
        </mxCell>
        <mxCell id="rUnFUxkot40c6fo-Xuhl-115" style="edgeStyle=orthogonalEdgeStyle;rounded=0;orthogonalLoop=1;jettySize=auto;html=1;exitX=1;exitY=0.25;exitDx=0;exitDy=0;entryX=0;entryY=0.5;entryDx=0;entryDy=0;" edge="1" parent="WIyWlLk6GJQsqaUBKTNV-1" source="rUnFUxkot40c6fo-Xuhl-32" target="rUnFUxkot40c6fo-Xuhl-64">
          <mxGeometry relative="1" as="geometry">
            <Array as="points">
              <mxPoint x="2875" y="-260" />
              <mxPoint x="3022" y="-260" />
              <mxPoint x="3022" y="-158" />
            </Array>
          </mxGeometry>
        </mxCell>
        <mxCell id="rUnFUxkot40c6fo-Xuhl-118" style="edgeStyle=orthogonalEdgeStyle;rounded=0;orthogonalLoop=1;jettySize=auto;html=1;exitX=1;exitY=0.5;exitDx=0;exitDy=0;entryX=0;entryY=0.5;entryDx=0;entryDy=0;" edge="1" parent="WIyWlLk6GJQsqaUBKTNV-1" source="rUnFUxkot40c6fo-Xuhl-32" target="rUnFUxkot40c6fo-Xuhl-37">
          <mxGeometry relative="1" as="geometry">
            <Array as="points">
              <mxPoint x="3020" y="-261" />
              <mxPoint x="3020" y="197" />
            </Array>
          </mxGeometry>
        </mxCell>
        <mxCell id="rUnFUxkot40c6fo-Xuhl-121" style="edgeStyle=orthogonalEdgeStyle;rounded=0;orthogonalLoop=1;jettySize=auto;html=1;exitX=1;exitY=0.5;exitDx=0;exitDy=0;entryX=0;entryY=0.5;entryDx=0;entryDy=0;" edge="1" parent="WIyWlLk6GJQsqaUBKTNV-1" source="rUnFUxkot40c6fo-Xuhl-32" target="rUnFUxkot40c6fo-Xuhl-120">
          <mxGeometry relative="1" as="geometry">
            <Array as="points">
              <mxPoint x="3020" y="-261" />
              <mxPoint x="3020" y="519" />
            </Array>
          </mxGeometry>
        </mxCell>
        <mxCell id="rUnFUxkot40c6fo-Xuhl-130" style="edgeStyle=orthogonalEdgeStyle;rounded=0;orthogonalLoop=1;jettySize=auto;html=1;entryX=0;entryY=0.5;entryDx=0;entryDy=0;" edge="1" parent="WIyWlLk6GJQsqaUBKTNV-1" target="rUnFUxkot40c6fo-Xuhl-36">
          <mxGeometry relative="1" as="geometry">
            <mxPoint x="2880" y="-261" as="sourcePoint" />
            <Array as="points">
              <mxPoint x="3020" y="-260" />
              <mxPoint x="3020" y="777" />
            </Array>
          </mxGeometry>
        </mxCell>
        <mxCell id="rUnFUxkot40c6fo-Xuhl-133" style="edgeStyle=orthogonalEdgeStyle;rounded=0;orthogonalLoop=1;jettySize=auto;html=1;exitX=1;exitY=0.25;exitDx=0;exitDy=0;entryX=0;entryY=0.5;entryDx=0;entryDy=0;" edge="1" parent="WIyWlLk6GJQsqaUBKTNV-1" target="rUnFUxkot40c6fo-Xuhl-131">
          <mxGeometry relative="1" as="geometry">
            <mxPoint x="2990" y="-292.37" as="sourcePoint" />
            <mxPoint x="3149" y="900.38" as="targetPoint" />
            <Array as="points">
              <mxPoint x="3020" y="-291" />
              <mxPoint x="3020" y="970" />
              <mxPoint x="3131" y="970" />
            </Array>
          </mxGeometry>
        </mxCell>
        <mxCell id="rUnFUxkot40c6fo-Xuhl-142" style="edgeStyle=orthogonalEdgeStyle;rounded=0;orthogonalLoop=1;jettySize=auto;html=1;exitX=1;exitY=0.5;exitDx=0;exitDy=0;entryX=0;entryY=0.5;entryDx=0;entryDy=0;" edge="1" parent="WIyWlLk6GJQsqaUBKTNV-1" source="rUnFUxkot40c6fo-Xuhl-32" target="rUnFUxkot40c6fo-Xuhl-45">
          <mxGeometry relative="1" as="geometry" />
        </mxCell>
        <mxCell id="rUnFUxkot40c6fo-Xuhl-32" value="Usuário faz login" style="html=1;overflow=block;blockSpacing=1;whiteSpace=wrap;fontSize=16.7;spacing=0;strokeColor=#282c33;strokeOpacity=100;fillOpacity=100;rounded=1;absoluteArcSize=1;arcSize=9;fillColor=#ffffff;strokeWidth=1.5;lucidId=R~~fp7Px24~a;" vertex="1" parent="WIyWlLk6GJQsqaUBKTNV-1">
          <mxGeometry x="2660" y="-284" width="215" height="45" as="geometry" />
        </mxCell>
        <mxCell id="rUnFUxkot40c6fo-Xuhl-33" value="Usuário seleciona &quot;esqueceu a senha&quot;" style="html=1;overflow=block;blockSpacing=1;whiteSpace=wrap;fontSize=16.7;spacing=0;strokeColor=#282c33;strokeOpacity=100;fillOpacity=100;rounded=1;absoluteArcSize=1;arcSize=9;fillColor=#ffffff;strokeWidth=1.5;lucidId=Gaag.V0q0CBY;" vertex="1" parent="WIyWlLk6GJQsqaUBKTNV-1">
          <mxGeometry x="285" y="171" width="268" height="76" as="geometry" />
        </mxCell>
        <mxCell id="rUnFUxkot40c6fo-Xuhl-34" value="Visualizar o calendário" style="html=1;overflow=block;blockSpacing=1;whiteSpace=wrap;fontSize=16.7;spacing=0;strokeColor=#282c33;strokeOpacity=100;fillOpacity=100;rounded=1;absoluteArcSize=1;arcSize=9;fillColor=#ffffff;strokeWidth=1.5;lucidId=ncag5nSuH~FQ;" vertex="1" parent="WIyWlLk6GJQsqaUBKTNV-1">
          <mxGeometry x="793" y="-6" width="257" height="73" as="geometry" />
        </mxCell>
        <mxCell id="rUnFUxkot40c6fo-Xuhl-35" value="Visualizar grade curricular" style="html=1;overflow=block;blockSpacing=1;whiteSpace=wrap;fontSize=16.7;spacing=0;strokeColor=#282c33;strokeOpacity=100;fillOpacity=100;rounded=1;absoluteArcSize=1;arcSize=9;fillColor=#ffffff;strokeWidth=1.5;lucidId=edagFw2vyw.m;" vertex="1" parent="WIyWlLk6GJQsqaUBKTNV-1">
          <mxGeometry x="886" y="251" width="222" height="106" as="geometry" />
        </mxCell>
        <mxCell id="rUnFUxkot40c6fo-Xuhl-36" value="Visualizar Quadro de Horários" style="html=1;overflow=block;blockSpacing=1;whiteSpace=wrap;fontSize=16.7;spacing=0;strokeColor=#282c33;strokeOpacity=100;fillOpacity=100;rounded=1;absoluteArcSize=1;arcSize=9;fillColor=#ffffff;strokeWidth=1.5;lucidId=OdageunkFL4_;" vertex="1" parent="WIyWlLk6GJQsqaUBKTNV-1">
          <mxGeometry x="3121" y="750" width="256" height="54" as="geometry" />
        </mxCell>
        <mxCell id="rUnFUxkot40c6fo-Xuhl-93" style="edgeStyle=orthogonalEdgeStyle;rounded=0;orthogonalLoop=1;jettySize=auto;html=1;exitX=1;exitY=0.5;exitDx=0;exitDy=0;entryX=0;entryY=0.5;entryDx=0;entryDy=0;" edge="1" parent="WIyWlLk6GJQsqaUBKTNV-1" source="rUnFUxkot40c6fo-Xuhl-37" target="rUnFUxkot40c6fo-Xuhl-92">
          <mxGeometry relative="1" as="geometry" />
        </mxCell>
        <mxCell id="rUnFUxkot40c6fo-Xuhl-95" style="edgeStyle=orthogonalEdgeStyle;rounded=0;orthogonalLoop=1;jettySize=auto;html=1;exitX=1;exitY=0.5;exitDx=0;exitDy=0;" edge="1" parent="WIyWlLk6GJQsqaUBKTNV-1" source="rUnFUxkot40c6fo-Xuhl-37" target="rUnFUxkot40c6fo-Xuhl-94">
          <mxGeometry relative="1" as="geometry" />
        </mxCell>
        <mxCell id="rUnFUxkot40c6fo-Xuhl-37" value="Usuário faz rematrícula on-line" style="html=1;overflow=block;blockSpacing=1;whiteSpace=wrap;fontSize=16.7;spacing=0;strokeColor=#282c33;strokeOpacity=100;fillOpacity=100;rounded=1;absoluteArcSize=1;arcSize=9;fillColor=#ffffff;strokeWidth=1.5;lucidId=keagAF9mJs9q;" vertex="1" parent="WIyWlLk6GJQsqaUBKTNV-1">
          <mxGeometry x="3131" y="162" width="217" height="69" as="geometry" />
        </mxCell>
        <mxCell id="rUnFUxkot40c6fo-Xuhl-43" value="Usuário resolve problema na central de soluções" style="html=1;overflow=block;blockSpacing=1;whiteSpace=wrap;fontSize=16.7;spacing=0;strokeColor=#282c33;strokeOpacity=100;fillOpacity=100;rounded=1;absoluteArcSize=1;arcSize=9;fillColor=#ffffff;strokeWidth=1.5;lucidId=aoag3U4Fi8WB;" vertex="1" parent="WIyWlLk6GJQsqaUBKTNV-1">
          <mxGeometry x="3169" y="-422" width="271" height="102" as="geometry" />
        </mxCell>
        <mxCell id="rUnFUxkot40c6fo-Xuhl-79" style="edgeStyle=orthogonalEdgeStyle;rounded=0;orthogonalLoop=1;jettySize=auto;html=1;exitX=0.5;exitY=0;exitDx=0;exitDy=0;entryX=0;entryY=0.5;entryDx=0;entryDy=0;" edge="1" parent="WIyWlLk6GJQsqaUBKTNV-1" source="rUnFUxkot40c6fo-Xuhl-44" target="rUnFUxkot40c6fo-Xuhl-55">
          <mxGeometry relative="1" as="geometry" />
        </mxCell>
        <mxCell id="rUnFUxkot40c6fo-Xuhl-105" style="edgeStyle=orthogonalEdgeStyle;rounded=0;orthogonalLoop=1;jettySize=auto;html=1;exitX=1;exitY=0.5;exitDx=0;exitDy=0;entryX=0;entryY=0.5;entryDx=0;entryDy=0;" edge="1" parent="WIyWlLk6GJQsqaUBKTNV-1" source="rUnFUxkot40c6fo-Xuhl-44" target="rUnFUxkot40c6fo-Xuhl-54">
          <mxGeometry relative="1" as="geometry" />
        </mxCell>
        <mxCell id="rUnFUxkot40c6fo-Xuhl-44" value="Usuário acessa o financeiro" style="html=1;overflow=block;blockSpacing=1;whiteSpace=wrap;fontSize=16.7;spacing=0;strokeColor=#282c33;strokeOpacity=100;fillOpacity=100;rounded=1;absoluteArcSize=1;arcSize=9;fillColor=#ffffff;strokeWidth=1.5;lucidId=XpagvJWb4Kwn;" vertex="1" parent="WIyWlLk6GJQsqaUBKTNV-1">
          <mxGeometry x="3154" y="-563" width="197" height="73" as="geometry" />
        </mxCell>
        <mxCell id="rUnFUxkot40c6fo-Xuhl-45" value="Usuário realiza a avaliação constitucional" style="html=1;overflow=block;blockSpacing=1;whiteSpace=wrap;fontSize=16.7;spacing=0;strokeColor=#282c33;strokeOpacity=100;fillOpacity=100;rounded=1;absoluteArcSize=1;arcSize=9;fillColor=#ffffff;strokeWidth=1.5;lucidId=QqagB81cPDgH;" vertex="1" parent="WIyWlLk6GJQsqaUBKTNV-1">
          <mxGeometry x="3169" y="-1230" width="221" height="95" as="geometry" />
        </mxCell>
        <mxCell id="rUnFUxkot40c6fo-Xuhl-46" value="Usuário emite relatório em &quot;Relatórios&quot;" style="html=1;overflow=block;blockSpacing=1;whiteSpace=wrap;fontSize=16.7;spacing=0;strokeColor=#282c33;strokeOpacity=100;fillOpacity=100;rounded=1;absoluteArcSize=1;arcSize=9;fillColor=#ffffff;strokeWidth=1.5;lucidId=wragig0bG9mm;" vertex="1" parent="WIyWlLk6GJQsqaUBKTNV-1">
          <mxGeometry x="757" y="-284" width="221" height="17" as="geometry" />
        </mxCell>
        <mxCell id="rUnFUxkot40c6fo-Xuhl-52" value="Usuário gera boleto" style="html=1;overflow=block;blockSpacing=1;whiteSpace=wrap;fontSize=16.7;spacing=0;strokeColor=#282c33;strokeOpacity=100;fillOpacity=100;rounded=1;absoluteArcSize=1;arcSize=9;fillColor=#ffffff;strokeWidth=1.5;lucidId=aNagrbmweS1.;" vertex="1" parent="WIyWlLk6GJQsqaUBKTNV-1">
          <mxGeometry x="4174" y="-1047" width="180" height="87" as="geometry" />
        </mxCell>
        <mxCell id="rUnFUxkot40c6fo-Xuhl-53" value="Usuário gera código de barras" style="html=1;overflow=block;blockSpacing=1;whiteSpace=wrap;fontSize=16.7;spacing=0;strokeColor=#282c33;strokeOpacity=100;fillOpacity=100;rounded=1;absoluteArcSize=1;arcSize=9;fillColor=#ffffff;strokeWidth=1.5;lucidId=GNagwMuWGmXu;" vertex="1" parent="WIyWlLk6GJQsqaUBKTNV-1">
          <mxGeometry x="4179" y="-858" width="203" height="48" as="geometry" />
        </mxCell>
        <mxCell id="rUnFUxkot40c6fo-Xuhl-82" style="edgeStyle=orthogonalEdgeStyle;rounded=0;orthogonalLoop=1;jettySize=auto;html=1;exitX=1;exitY=0.5;exitDx=0;exitDy=0;entryX=0;entryY=0.5;entryDx=0;entryDy=0;" edge="1" parent="WIyWlLk6GJQsqaUBKTNV-1" source="rUnFUxkot40c6fo-Xuhl-54" target="rUnFUxkot40c6fo-Xuhl-60">
          <mxGeometry relative="1" as="geometry" />
        </mxCell>
        <mxCell id="rUnFUxkot40c6fo-Xuhl-54" value="Usuário visualiza mensalidades vencidas, a vencer e pagas" style="html=1;overflow=block;blockSpacing=1;whiteSpace=wrap;fontSize=16.7;spacing=0;strokeColor=#282c33;strokeOpacity=100;fillOpacity=100;rounded=1;absoluteArcSize=1;arcSize=9;fillColor=#ffffff;strokeWidth=1.5;lucidId=TOagGhvxD3LM;" vertex="1" parent="WIyWlLk6GJQsqaUBKTNV-1">
          <mxGeometry x="3735" y="-589" width="180" height="99" as="geometry" />
        </mxCell>
        <mxCell id="rUnFUxkot40c6fo-Xuhl-80" style="edgeStyle=orthogonalEdgeStyle;rounded=0;orthogonalLoop=1;jettySize=auto;html=1;exitX=1;exitY=0.5;exitDx=0;exitDy=0;entryX=0;entryY=0.5;entryDx=0;entryDy=0;" edge="1" parent="WIyWlLk6GJQsqaUBKTNV-1" source="rUnFUxkot40c6fo-Xuhl-55" target="rUnFUxkot40c6fo-Xuhl-52">
          <mxGeometry relative="1" as="geometry" />
        </mxCell>
        <mxCell id="rUnFUxkot40c6fo-Xuhl-81" style="edgeStyle=orthogonalEdgeStyle;rounded=0;orthogonalLoop=1;jettySize=auto;html=1;exitX=1;exitY=0.5;exitDx=0;exitDy=0;entryX=0;entryY=0.5;entryDx=0;entryDy=0;" edge="1" parent="WIyWlLk6GJQsqaUBKTNV-1" source="rUnFUxkot40c6fo-Xuhl-55" target="rUnFUxkot40c6fo-Xuhl-53">
          <mxGeometry relative="1" as="geometry" />
        </mxCell>
        <mxCell id="rUnFUxkot40c6fo-Xuhl-55" value="Gera método de pagamento" style="html=1;overflow=block;blockSpacing=1;whiteSpace=wrap;fontSize=16.7;spacing=0;strokeColor=#282c33;strokeOpacity=100;fillOpacity=100;rounded=1;absoluteArcSize=1;arcSize=9;fillColor=#ffffff;strokeWidth=1.5;lucidId=~Pag1-Fd03f6;" vertex="1" parent="WIyWlLk6GJQsqaUBKTNV-1">
          <mxGeometry x="3739" y="-956" width="204" height="76" as="geometry" />
        </mxCell>
        <mxCell id="rUnFUxkot40c6fo-Xuhl-60" value="Usuário vê detalhamento de cada mensalidade" style="html=1;overflow=block;blockSpacing=1;whiteSpace=wrap;fontSize=16.7;spacing=0;strokeColor=#282c33;strokeOpacity=100;fillOpacity=100;rounded=1;absoluteArcSize=1;arcSize=9;fillColor=#ffffff;strokeWidth=1.5;lucidId=LSagF-fGWhoS;" vertex="1" parent="WIyWlLk6GJQsqaUBKTNV-1">
          <mxGeometry x="4150" y="-582" width="222" height="62" as="geometry" />
        </mxCell>
        <mxCell id="rUnFUxkot40c6fo-Xuhl-92" value="Usuário vê vídeo tutorial de como fazer rematrícula" style="ellipse;whiteSpace=wrap;html=1;" vertex="1" parent="WIyWlLk6GJQsqaUBKTNV-1">
          <mxGeometry x="3498" y="60" width="180" height="100" as="geometry" />
        </mxCell>
        <mxCell id="rUnFUxkot40c6fo-Xuhl-94" value="Usuário entra no link para fazer rematrícula" style="ellipse;whiteSpace=wrap;html=1;" vertex="1" parent="WIyWlLk6GJQsqaUBKTNV-1">
          <mxGeometry x="3498" y="223" width="180" height="110" as="geometry" />
        </mxCell>
        <mxCell id="rUnFUxkot40c6fo-Xuhl-112" style="edgeStyle=orthogonalEdgeStyle;rounded=0;orthogonalLoop=1;jettySize=auto;html=1;exitX=0.5;exitY=0;exitDx=0;exitDy=0;exitPerimeter=0;entryX=0;entryY=0.5;entryDx=0;entryDy=0;" edge="1" parent="WIyWlLk6GJQsqaUBKTNV-1" source="rUnFUxkot40c6fo-Xuhl-100" target="rUnFUxkot40c6fo-Xuhl-32">
          <mxGeometry relative="1" as="geometry" />
        </mxCell>
        <mxCell id="rUnFUxkot40c6fo-Xuhl-100" value="Aluno" style="shape=umlActor;verticalLabelPosition=bottom;verticalAlign=top;html=1;outlineConnect=0;" vertex="1" parent="WIyWlLk6GJQsqaUBKTNV-1">
          <mxGeometry x="2422" y="-233" width="90" height="220" as="geometry" />
        </mxCell>
        <mxCell id="rUnFUxkot40c6fo-Xuhl-124" style="edgeStyle=orthogonalEdgeStyle;rounded=0;orthogonalLoop=1;jettySize=auto;html=1;exitX=1;exitY=0.5;exitDx=0;exitDy=0;entryX=0;entryY=0.5;entryDx=0;entryDy=0;" edge="1" parent="WIyWlLk6GJQsqaUBKTNV-1" source="rUnFUxkot40c6fo-Xuhl-120" target="rUnFUxkot40c6fo-Xuhl-123">
          <mxGeometry relative="1" as="geometry" />
        </mxCell>
        <mxCell id="rUnFUxkot40c6fo-Xuhl-126" style="edgeStyle=orthogonalEdgeStyle;rounded=0;orthogonalLoop=1;jettySize=auto;html=1;exitX=1;exitY=0.5;exitDx=0;exitDy=0;entryX=0;entryY=0.5;entryDx=0;entryDy=0;" edge="1" parent="WIyWlLk6GJQsqaUBKTNV-1" source="rUnFUxkot40c6fo-Xuhl-120" target="rUnFUxkot40c6fo-Xuhl-125">
          <mxGeometry relative="1" as="geometry" />
        </mxCell>
        <mxCell id="rUnFUxkot40c6fo-Xuhl-128" style="edgeStyle=orthogonalEdgeStyle;rounded=0;orthogonalLoop=1;jettySize=auto;html=1;exitX=1;exitY=0.5;exitDx=0;exitDy=0;entryX=0;entryY=0.5;entryDx=0;entryDy=0;" edge="1" parent="WIyWlLk6GJQsqaUBKTNV-1" source="rUnFUxkot40c6fo-Xuhl-120" target="rUnFUxkot40c6fo-Xuhl-127">
          <mxGeometry relative="1" as="geometry" />
        </mxCell>
        <mxCell id="rUnFUxkot40c6fo-Xuhl-120" value="Usuário visualiza o &quot;Calendário&quot;&amp;nbsp;" style="ellipse;whiteSpace=wrap;html=1;" vertex="1" parent="WIyWlLk6GJQsqaUBKTNV-1">
          <mxGeometry x="3100" y="479" width="120" height="80" as="geometry" />
        </mxCell>
        <mxCell id="rUnFUxkot40c6fo-Xuhl-123" value="Usuário filtra disciplinas" style="ellipse;whiteSpace=wrap;html=1;" vertex="1" parent="WIyWlLk6GJQsqaUBKTNV-1">
          <mxGeometry x="3338" y="479" width="142" height="80" as="geometry" />
        </mxCell>
        <mxCell id="rUnFUxkot40c6fo-Xuhl-125" value="Usuário seleciona a data" style="ellipse;whiteSpace=wrap;html=1;" vertex="1" parent="WIyWlLk6GJQsqaUBKTNV-1">
          <mxGeometry x="3348" y="600" width="120" height="80" as="geometry" />
        </mxCell>
        <mxCell id="rUnFUxkot40c6fo-Xuhl-127" value="Usuário escolhe forma de visualização (dia, mês, semana, agenda)" style="ellipse;whiteSpace=wrap;html=1;" vertex="1" parent="WIyWlLk6GJQsqaUBKTNV-1">
          <mxGeometry x="3309" y="350" width="200" height="90" as="geometry" />
        </mxCell>
        <mxCell id="rUnFUxkot40c6fo-Xuhl-63" value="Usuário vê detalhamento da disciplina" style="html=1;overflow=block;blockSpacing=1;whiteSpace=wrap;fontSize=16.7;spacing=0;strokeColor=#282c33;strokeOpacity=100;fillOpacity=100;rounded=1;absoluteArcSize=1;arcSize=9;fillColor=#ffffff;strokeWidth=1.5;lucidId=V.agT9hImhcR;" vertex="1" parent="WIyWlLk6GJQsqaUBKTNV-1">
          <mxGeometry x="4341" y="-128" width="221" height="56" as="geometry" />
        </mxCell>
        <mxCell id="rUnFUxkot40c6fo-Xuhl-28" value="" style="html=1;overflow=block;blockSpacing=1;whiteSpace=wrap;ellipse;container=1;pointerEvents=0;collapsible=0;recursiveResize=0;fontSize=13;spacing=0;strokeColor=#unset;fillOpacity=0;rounded=1;absoluteArcSize=1;arcSize=9;fillColor=#000000;strokeWidth=NaN;lucidId=V_agjKaJFIL0;" vertex="1" parent="WIyWlLk6GJQsqaUBKTNV-1">
          <mxGeometry x="4326" y="-360" width="285" height="122" as="geometry" />
        </mxCell>
        <mxCell id="rUnFUxkot40c6fo-Xuhl-62" value="Usuário filtra disciplinas" style="html=1;overflow=block;blockSpacing=1;whiteSpace=wrap;fontSize=16.7;spacing=0;strokeColor=#282c33;strokeOpacity=100;fillOpacity=100;rounded=1;absoluteArcSize=1;arcSize=9;fillColor=#ffffff;strokeWidth=1.5;lucidId=X_agms8F3l3b;" vertex="1" parent="rUnFUxkot40c6fo-Xuhl-28">
          <mxGeometry x="35.5" y="30.5" width="214" height="85" as="geometry" />
        </mxCell>
        <mxCell id="rUnFUxkot40c6fo-Xuhl-39" value="Usuário visualiza suas notas em cada disciplina" style="html=1;overflow=block;blockSpacing=1;whiteSpace=wrap;fontSize=16.7;spacing=0;strokeColor=#282c33;strokeOpacity=100;fillOpacity=100;rounded=1;absoluteArcSize=1;arcSize=9;fillColor=#ffffff;strokeWidth=1.5;lucidId=TfagR_.VnuLy;" vertex="1" parent="WIyWlLk6GJQsqaUBKTNV-1">
          <mxGeometry x="3753" y="-332" width="275" height="90" as="geometry" />
        </mxCell>
        <mxCell id="rUnFUxkot40c6fo-Xuhl-17" value="" style="html=1;overflow=block;blockSpacing=1;whiteSpace=wrap;ellipse;container=1;pointerEvents=0;collapsible=0;recursiveResize=0;fontSize=13;spacing=0;strokeColor=#unset;fillOpacity=0;rounded=1;absoluteArcSize=1;arcSize=9;fillColor=#000000;strokeWidth=NaN;lucidId=YeagIgFy~XO2;" vertex="1" parent="WIyWlLk6GJQsqaUBKTNV-1">
          <mxGeometry x="3714" y="-183" width="352" height="153" as="geometry" />
        </mxCell>
        <mxCell id="rUnFUxkot40c6fo-Xuhl-38" value="Usuário visualiza o número de faltas em cada disciplina" style="html=1;overflow=block;blockSpacing=1;whiteSpace=wrap;fontSize=16.7;spacing=0;strokeColor=#282c33;strokeOpacity=100;fillOpacity=100;rounded=1;absoluteArcSize=1;arcSize=9;fillColor=#ffffff;strokeWidth=1.5;lucidId=Zeag9wcReGp1;" vertex="1" parent="rUnFUxkot40c6fo-Xuhl-17">
          <mxGeometry x="28" y="46" width="264" height="74" as="geometry" />
        </mxCell>
        <mxCell id="rUnFUxkot40c6fo-Xuhl-64" value="Usuário entra na &quot;Central do Aluno&quot;" style="html=1;overflow=block;blockSpacing=1;whiteSpace=wrap;fontSize=16.7;spacing=0;strokeColor=#282c33;strokeOpacity=100;fillOpacity=100;rounded=1;absoluteArcSize=1;arcSize=9;fillColor=#ffffff;strokeWidth=1.5;lucidId=iabgqO2KLxVr;" vertex="1" parent="WIyWlLk6GJQsqaUBKTNV-1">
          <mxGeometry x="3290" y="-195" width="225" height="73" as="geometry" />
        </mxCell>
        <mxCell id="rUnFUxkot40c6fo-Xuhl-86" style="edgeStyle=orthogonalEdgeStyle;rounded=0;orthogonalLoop=1;jettySize=auto;html=1;exitX=1;exitY=0.5;exitDx=0;exitDy=0;entryX=0;entryY=0.5;entryDx=0;entryDy=0;" edge="1" parent="WIyWlLk6GJQsqaUBKTNV-1" source="rUnFUxkot40c6fo-Xuhl-38" target="rUnFUxkot40c6fo-Xuhl-63">
          <mxGeometry relative="1" as="geometry" />
        </mxCell>
        <mxCell id="rUnFUxkot40c6fo-Xuhl-89" style="edgeStyle=orthogonalEdgeStyle;rounded=0;orthogonalLoop=1;jettySize=auto;html=1;exitX=1;exitY=0.5;exitDx=0;exitDy=0;entryX=0;entryY=0.5;entryDx=0;entryDy=0;" edge="1" parent="WIyWlLk6GJQsqaUBKTNV-1" source="rUnFUxkot40c6fo-Xuhl-39" target="rUnFUxkot40c6fo-Xuhl-63">
          <mxGeometry relative="1" as="geometry" />
        </mxCell>
        <mxCell id="rUnFUxkot40c6fo-Xuhl-88" style="edgeStyle=orthogonalEdgeStyle;rounded=0;orthogonalLoop=1;jettySize=auto;html=1;exitX=1;exitY=0.5;exitDx=0;exitDy=0;entryX=0;entryY=0.5;entryDx=0;entryDy=0;" edge="1" parent="WIyWlLk6GJQsqaUBKTNV-1" source="rUnFUxkot40c6fo-Xuhl-39" target="rUnFUxkot40c6fo-Xuhl-62">
          <mxGeometry relative="1" as="geometry" />
        </mxCell>
        <mxCell id="rUnFUxkot40c6fo-Xuhl-90" style="edgeStyle=orthogonalEdgeStyle;rounded=0;orthogonalLoop=1;jettySize=auto;html=1;exitX=1;exitY=0.5;exitDx=0;exitDy=0;entryX=0;entryY=0.5;entryDx=0;entryDy=0;" edge="1" parent="WIyWlLk6GJQsqaUBKTNV-1" source="rUnFUxkot40c6fo-Xuhl-38" target="rUnFUxkot40c6fo-Xuhl-62">
          <mxGeometry relative="1" as="geometry" />
        </mxCell>
        <mxCell id="rUnFUxkot40c6fo-Xuhl-108" style="edgeStyle=orthogonalEdgeStyle;rounded=0;orthogonalLoop=1;jettySize=auto;html=1;exitX=1;exitY=0.5;exitDx=0;exitDy=0;entryX=0;entryY=0.5;entryDx=0;entryDy=0;" edge="1" parent="WIyWlLk6GJQsqaUBKTNV-1" source="rUnFUxkot40c6fo-Xuhl-64" target="rUnFUxkot40c6fo-Xuhl-39">
          <mxGeometry relative="1" as="geometry" />
        </mxCell>
        <mxCell id="rUnFUxkot40c6fo-Xuhl-109" style="edgeStyle=orthogonalEdgeStyle;rounded=0;orthogonalLoop=1;jettySize=auto;html=1;exitX=1;exitY=0.5;exitDx=0;exitDy=0;entryX=0;entryY=0.5;entryDx=0;entryDy=0;" edge="1" parent="WIyWlLk6GJQsqaUBKTNV-1" source="rUnFUxkot40c6fo-Xuhl-64" target="rUnFUxkot40c6fo-Xuhl-38">
          <mxGeometry relative="1" as="geometry" />
        </mxCell>
        <mxCell id="rUnFUxkot40c6fo-Xuhl-136" style="edgeStyle=orthogonalEdgeStyle;rounded=0;orthogonalLoop=1;jettySize=auto;html=1;exitX=1;exitY=0.5;exitDx=0;exitDy=0;entryX=0;entryY=0.5;entryDx=0;entryDy=0;" edge="1" parent="WIyWlLk6GJQsqaUBKTNV-1" source="rUnFUxkot40c6fo-Xuhl-131" target="rUnFUxkot40c6fo-Xuhl-135">
          <mxGeometry relative="1" as="geometry" />
        </mxCell>
        <mxCell id="rUnFUxkot40c6fo-Xuhl-138" style="edgeStyle=orthogonalEdgeStyle;rounded=0;orthogonalLoop=1;jettySize=auto;html=1;exitX=1;exitY=0.5;exitDx=0;exitDy=0;entryX=0;entryY=0.5;entryDx=0;entryDy=0;" edge="1" parent="WIyWlLk6GJQsqaUBKTNV-1" source="rUnFUxkot40c6fo-Xuhl-131" target="rUnFUxkot40c6fo-Xuhl-137">
          <mxGeometry relative="1" as="geometry" />
        </mxCell>
        <mxCell id="rUnFUxkot40c6fo-Xuhl-131" value="&lt;font style=&quot;font-size: 17px;&quot;&gt;Usuário acessa &quot;Grade&amp;nbsp; Curricular&quot;&lt;/font&gt;" style="ellipse;whiteSpace=wrap;html=1;" vertex="1" parent="WIyWlLk6GJQsqaUBKTNV-1">
          <mxGeometry x="3131" y="920" width="220" height="110" as="geometry" />
        </mxCell>
        <mxCell id="rUnFUxkot40c6fo-Xuhl-135" value="Usuário visualiza disciplinas de cada período em seu curso" style="ellipse;whiteSpace=wrap;html=1;" vertex="1" parent="WIyWlLk6GJQsqaUBKTNV-1">
          <mxGeometry x="3451" y="850" width="220" height="120" as="geometry" />
        </mxCell>
        <mxCell id="rUnFUxkot40c6fo-Xuhl-137" value="Usuário visualiza detalhamento de cada disciplina" style="ellipse;whiteSpace=wrap;html=1;" vertex="1" parent="WIyWlLk6GJQsqaUBKTNV-1">
          <mxGeometry x="3451" y="1020" width="180" height="100" as="geometry" />
        </mxCell>
      </root>
    </mxGraphModel>
  </diagram>
</mxfile>
